<svg t="1702188645503" class="icon" viewBox="0 0 1024 1024" version="1.1" xmlns="http://www.w3.org/2000/svg" p-id="4263"
    width="200" height="200">
    <path
        d="M749.536 130.24l128.448 128.768c4.256 4.256 1.376 11.296-4.8 11.808l-78.24 6.4-7.52 0.608c0.704 24.992 11.488 209.728-137.824 353.984-82.528 85.856-200.704 141.696-354.56 167.488l0.128 0.576 20.416 71.264c1.6 5.632-4.448 10.56-10.176 8.288l-172.8-69.312c-4.544-1.76-6.048-7.04-3.072-10.592l112.736-141.152c3.712-4.672 11.616-3.264 13.216 2.4l20.32 71.232 3.648 12.704c132.992-19.072 240.224-67.52 321.696-145.28 86.208-84.8 128.64-186.816 127.36-305.984l-0.256-10.72-7.872 0.64-78.304 6.496c-6.176 0.512-10.304-5.952-6.912-10.848l102.688-147.744a7.68 7.68 0 0 1 11.68-1.024z"
        p-id="4264"></path>
</svg>